<svg xmlns="http://www.w3.org/2000/svg" width="320" height="144" fill="none" viewBox="0 0 320 144">
    <path fill="url(#paint0_linear)" d="M0 0h320v134c0 1.105-.895 2-2 2H0V0z"/>
    <path fill="#FDBF00" d="M254 144c-31.981 0-58-26.019-58-58s26.019-58 58-58 58 26.019 58 58-26.019 58-58 58z"/>
    <path fill="#FF9100" d="M254 28v116c31.981 0 58-26.019 58-58s-26.019-58-58-58z"/>
    <path fill="#FFDE46" d="M267.82 127.006l-29.444-.039c-.901-.001-1.765-.361-2.402-.999l-21.99-22.048c-.636-.638-.993-1.503-.992-2.404l.041-31.14c.001-.901.361-1.765.999-2.401l22.048-21.99c.637-.636 1.5-.993 2.399-.993h.005l29.336.039 6.797 3.6 6.797 6.814 3.895 8.732 2.902-1.917 5.804 5.82c.637.638.994 1.503.993 2.404l-.041 31.14c-.001.901-.361 1.765-.999 2.402l-5.757 5.742-3.399-1.55-3.398 8.329-6.797 6.779-6.797 3.68z"/>
    <path fill="#FFCD00" d="M294.016 68.08l-5.805-5.82-2.902 1.918-3.895-8.733-6.797-6.815-6.797-3.6-13.82-.017v81.974l13.82.019 6.797-3.68 6.797-6.779 3.399-8.329 3.398 1.55 5.757-5.742c.638-.637.998-1.501.999-2.402l.041-31.14c.001-.901-.356-1.766-.992-2.404z"/>
    <path fill="#FDBF00" d="M281.414 116.547l6.797-6.779V62.26l-6.797-6.815v61.102zM274.617 123.326V48.63l-2.591-2.599c-.637-.638-1.501-.997-2.402-.998l-1.804-.002v81.975l1.696.002h.005c.899 0 1.762-.357 2.399-.992l2.697-2.69z"/>
    <g opacity=".16">
        <path fill="#FDBF00" d="M192 81c-19.85 0-36-16.15-36-36s16.15-36 36-36 36 16.15 36 36-16.15 36-36 36z"/>
        <path fill="#FF9100" d="M192 9v72c19.85 0 36-16.15 36-36S211.85 9 192 9z"/>
        <path fill="#FFDE46" d="M200.578 70.452l-18.276-.024c-.559-.001-1.095-.224-1.49-.62l-13.649-13.685c-.395-.396-.617-.933-.616-1.492l.025-19.328c.001-.56.224-1.096.62-1.491l13.685-13.65c.396-.394.931-.615 1.49-.615h.003l18.208.024 4.219 2.234 4.219 4.23 2.417 5.42 1.801-1.19 3.603 3.612c.395.396.617.933.616 1.492l-.025 19.328c-.001.56-.224 1.096-.62 1.491l-3.574 3.564-2.109-.962-2.109 5.17-4.219 4.208-4.219 2.284z"/>
        <path fill="#FFCD00" d="M216.837 33.877l-3.603-3.612-1.801 1.19-2.417-5.42-4.219-4.23-4.219-2.234-8.578-.012V70.44l8.578.012 4.219-2.284 4.219-4.208 2.109-5.17 2.109.962 3.574-3.564c.396-.395.619-.931.62-1.49l.025-19.329c.001-.56-.221-1.096-.616-1.492z"/>
        <path fill="#FDBF00" d="M209.016 63.96l4.218-4.208V30.265l-4.218-4.23V63.96zM204.797 68.168V21.805l-1.609-1.613c-.395-.396-.931-.62-1.491-.62l-1.119-.001v50.88l1.053.002h.003c.558 0 1.094-.221 1.489-.616l1.674-1.67z"/>
    </g>
    <path fill="#fff" d="M24.596 18.242V28h-1.274v-4.424h-4.97V28h-1.274v-9.758h1.274v4.284h4.97v-4.284h1.274zm2.833.84c-.242 0-.448-.084-.616-.252-.168-.168-.252-.373-.252-.616s.084-.448.252-.616c.168-.168.374-.252.616-.252.234 0 .43.084.588.252.168.168.252.373.252.616s-.084.448-.252.616c-.158.168-.354.252-.588.252zm.616 1.246V28h-1.274v-7.672h1.274zm8.998 7.77c-.644 0-1.223-.112-1.736-.336-.504-.233-.9-.55-1.19-.952-.29-.41-.439-.882-.448-1.414h1.358c.047.457.233.845.56 1.162.336.308.821.462 1.456.462.607 0 1.083-.15 1.428-.448.355-.308.532-.7.532-1.176 0-.373-.103-.677-.308-.91-.205-.233-.462-.41-.77-.532-.308-.121-.723-.252-1.246-.392-.644-.168-1.162-.336-1.554-.504-.383-.168-.714-.43-.994-.784-.27-.364-.406-.85-.406-1.456 0-.532.135-1.003.406-1.414.27-.41.649-.728 1.134-.952.495-.224 1.06-.336 1.694-.336.915 0 1.661.229 2.24.686.588.457.92 1.064.994 1.82h-1.4c-.047-.373-.243-.7-.588-.98-.345-.29-.803-.434-1.372-.434-.532 0-.966.14-1.302.42-.336.27-.504.653-.504 1.148 0 .355.098.644.294.868.205.224.453.397.742.518.299.112.714.243 1.246.392.644.177 1.162.355 1.554.532.392.168.728.434 1.008.798.28.355.42.84.42 1.456 0 .476-.126.924-.378 1.344-.252.42-.625.76-1.12 1.022-.495.261-1.078.392-1.75.392zm8.93-7.91c.58 0 1.102.126 1.569.378.467.243.83.611 1.092 1.106.27.495.406 1.097.406 1.806V28h-1.26v-4.34c0-.765-.191-1.349-.574-1.75-.383-.41-.905-.616-1.568-.616-.672 0-1.209.21-1.61.63-.392.42-.588 1.031-.588 1.834V28h-1.274V17.64h1.274v3.78c.252-.392.597-.695 1.036-.91.448-.215.947-.322 1.498-.322zm6.422 1.386c.224-.439.541-.78.952-1.022.42-.243.929-.364 1.526-.364v1.316h-.336c-1.428 0-2.142.775-2.142 2.324V28h-1.274v-7.672h1.274v1.246zm10.949 2.296c0 .243-.014.5-.042.77H57.17c.046.756.303 1.349.77 1.778.476.42 1.05.63 1.722.63.55 0 1.008-.126 1.372-.378.373-.261.634-.607.784-1.036h1.372c-.206.737-.616 1.34-1.232 1.806-.616.457-1.382.686-2.296.686-.728 0-1.382-.163-1.96-.49-.57-.327-1.018-.789-1.344-1.386-.327-.607-.49-1.307-.49-2.1 0-.793.158-1.489.476-2.086.317-.597.76-1.055 1.33-1.372.578-.327 1.241-.49 1.988-.49.728 0 1.372.159 1.932.476.56.317.989.756 1.288 1.316.308.55.462 1.176.462 1.876zm-1.316-.266c0-.485-.108-.9-.322-1.246-.215-.355-.509-.62-.882-.798-.364-.187-.77-.28-1.218-.28-.644 0-1.195.205-1.652.616-.448.41-.705.98-.77 1.708h4.844zm9.605-3.276l-4.62 11.284h-1.316l1.512-3.696-3.094-7.588h1.414l2.408 6.216 2.38-6.216h1.316zm.805 3.808c0-.784.159-1.47.476-2.058.317-.597.751-1.06 1.302-1.386.56-.327 1.18-.49 1.862-.49.672 0 1.255.145 1.75.434.495.29.863.653 1.106 1.092v-1.4h1.288V28h-1.288v-1.428c-.252.448-.63.821-1.134 1.12-.495.29-1.073.434-1.736.434-.681 0-1.297-.168-1.848-.504-.55-.336-.985-.807-1.302-1.414-.317-.607-.476-1.297-.476-2.072zm6.496.014c0-.579-.117-1.083-.35-1.512-.233-.43-.55-.756-.952-.98-.392-.233-.826-.35-1.302-.35-.476 0-.91.112-1.302.336-.392.224-.705.55-.938.98-.233.43-.35.933-.35 1.512 0 .588.117 1.101.35 1.54.233.43.546.76.938.994.392.224.826.336 1.302.336.476 0 .91-.112 1.302-.336.401-.233.719-.565.952-.994.233-.439.35-.947.35-1.526zm6.157 3.976c-.588 0-1.115-.098-1.582-.294-.467-.205-.835-.485-1.106-.84-.27-.364-.42-.78-.448-1.246h1.316c.037.383.215.695.532.938.326.243.751.364 1.274.364.485 0 .868-.107 1.148-.322.28-.215.42-.485.42-.812 0-.336-.15-.583-.448-.742-.299-.168-.76-.331-1.386-.49-.57-.15-1.036-.299-1.4-.448-.355-.159-.663-.387-.924-.686-.252-.308-.378-.71-.378-1.204 0-.392.117-.751.35-1.078.233-.327.564-.583.994-.77.43-.196.92-.294 1.47-.294.85 0 1.535.215 2.058.644.523.43.803 1.017.84 1.764h-1.274c-.028-.401-.191-.723-.49-.966-.29-.243-.681-.364-1.176-.364-.457 0-.822.098-1.092.294-.27.196-.406.453-.406.77 0 .252.08.462.238.63.168.159.373.29.616.392.252.093.597.2 1.036.322.55.15.999.299 1.344.448.345.14.64.355.882.644.252.29.383.667.392 1.134 0 .42-.117.798-.35 1.134-.233.336-.565.602-.994.798-.42.187-.906.28-1.456.28zm5.914-1.89l-1.568 3.766h-.854l1.022-3.766h1.4zm-61.663 9.006L26.514 45h-1.428l-2.268-7.854L20.466 45l-1.414.014-2.73-9.772h1.358l2.128 8.274 2.352-8.274h1.428l2.24 8.246 2.142-8.246h1.372zm8.394 5.628c0 .243-.014.5-.042.77h-6.132c.047.756.303 1.349.77 1.778.476.42 1.05.63 1.722.63.55 0 1.008-.126 1.372-.378.373-.261.635-.607.784-1.036h1.372c-.205.737-.616 1.34-1.232 1.806-.616.457-1.381.686-2.296.686-.728 0-1.381-.163-1.96-.49-.57-.327-1.017-.789-1.344-1.386-.326-.607-.49-1.307-.49-2.1 0-.793.159-1.489.476-2.086.317-.597.76-1.055 1.33-1.372.579-.327 1.241-.49 1.988-.49.728 0 1.372.159 1.932.476.56.317.99.756 1.288 1.316.308.55.462 1.176.462 1.876zm-1.316-.266c0-.485-.107-.9-.322-1.246-.215-.355-.508-.62-.882-.798-.364-.187-.77-.28-1.218-.28-.644 0-1.194.205-1.652.616-.448.41-.704.98-.77 1.708h4.844zm4.272-5.964V45h-1.274V34.64h1.274zm1.695 6.51c0-.793.159-1.484.476-2.072.318-.597.756-1.06 1.316-1.386.57-.327 1.218-.49 1.946-.49.943 0 1.718.229 2.324.686.616.457 1.022 1.092 1.218 1.904h-1.372c-.13-.467-.387-.835-.77-1.106-.373-.27-.84-.406-1.4-.406-.728 0-1.316.252-1.764.756-.448.495-.672 1.2-.672 2.114 0 .924.224 1.638.672 2.142.448.504 1.036.756 1.764.756.56 0 1.027-.13 1.4-.392.373-.261.63-.635.77-1.12h1.372c-.205.784-.616 1.414-1.232 1.89-.616.467-1.386.7-2.31.7-.728 0-1.377-.163-1.946-.49-.56-.327-.998-.789-1.316-1.386-.317-.597-.476-1.297-.476-2.1zm12.326 3.976c-.719 0-1.372-.163-1.96-.49-.579-.327-1.036-.789-1.372-1.386-.327-.607-.49-1.307-.49-2.1 0-.784.168-1.475.504-2.072.345-.607.812-1.069 1.4-1.386.588-.327 1.246-.49 1.974-.49s1.386.163 1.974.49c.588.317 1.05.775 1.386 1.372.345.597.518 1.293.518 2.086 0 .793-.177 1.493-.532 2.1-.345.597-.817 1.06-1.414 1.386-.597.327-1.26.49-1.988.49zm0-1.12c.457 0 .887-.107 1.288-.322.401-.215.723-.537.966-.966.252-.43.378-.952.378-1.568 0-.616-.121-1.139-.364-1.568-.243-.43-.56-.747-.952-.952-.392-.215-.817-.322-1.274-.322-.467 0-.896.107-1.288.322-.383.205-.69.523-.924.952-.233.43-.35.952-.35 1.568 0 .625.112 1.153.336 1.582.233.43.541.751.924.966.383.205.803.308 1.26.308zm14.835-6.818c.597 0 1.13.126 1.596.378.467.243.835.611 1.106 1.106.27.495.406 1.097.406 1.806V45h-1.26v-4.34c0-.765-.191-1.349-.574-1.75-.373-.41-.882-.616-1.526-.616-.663 0-1.19.215-1.582.644-.392.42-.588 1.031-.588 1.834V45h-1.26v-4.34c0-.765-.191-1.349-.574-1.75-.373-.41-.882-.616-1.526-.616-.663 0-1.19.215-1.582.644-.392.42-.588 1.031-.588 1.834V45h-1.274v-7.672h1.274v1.106c.252-.401.588-.71 1.008-.924.43-.215.9-.322 1.414-.322.644 0 1.213.145 1.708.434.495.29.864.714 1.106 1.274.215-.541.57-.961 1.064-1.26.495-.299 1.046-.448 1.652-.448zm12.198 3.682c0 .243-.014.5-.042.77h-6.132c.047.756.303 1.349.77 1.778.476.42 1.05.63 1.722.63.55 0 1.008-.126 1.372-.378.373-.261.635-.607.784-1.036h1.372c-.205.737-.616 1.34-1.232 1.806-.616.457-1.381.686-2.296.686-.728 0-1.381-.163-1.96-.49-.57-.327-1.017-.789-1.344-1.386-.327-.607-.49-1.307-.49-2.1 0-.793.159-1.489.476-2.086.317-.597.76-1.055 1.33-1.372.579-.327 1.241-.49 1.988-.49.728 0 1.372.159 1.932.476.56.317.99.756 1.288 1.316.308.55.462 1.176.462 1.876zm-1.316-.266c0-.485-.107-.9-.322-1.246-.215-.355-.509-.62-.882-.798-.364-.187-.77-.28-1.218-.28-.644 0-1.195.205-1.652.616-.448.41-.705.98-.77 1.708h4.844zm8.004-1.848c.261-.457.644-.83 1.148-1.12.504-.29 1.078-.434 1.722-.434.69 0 1.311.163 1.862.49.55.327.985.789 1.302 1.386.317.588.476 1.274.476 2.058 0 .775-.159 1.465-.476 2.072-.317.607-.756 1.078-1.316 1.414-.55.336-1.167.504-1.848.504-.663 0-1.246-.145-1.75-.434-.495-.29-.868-.658-1.12-1.106V45H87.16V34.64h1.274v4.116zm5.208 2.38c0-.579-.117-1.083-.35-1.512-.233-.43-.55-.756-.952-.98-.392-.224-.826-.336-1.302-.336-.467 0-.9.117-1.302.35-.392.224-.71.555-.952.994-.233.43-.35.929-.35 1.498 0 .579.117 1.087.35 1.526.243.43.56.76.952.994.401.224.835.336 1.302.336.476 0 .91-.112 1.302-.336.401-.233.719-.565.952-.994.233-.439.35-.952.35-1.54zm2.503 0c0-.784.159-1.47.476-2.058.317-.597.751-1.06 1.302-1.386.56-.327 1.18-.49 1.862-.49.672 0 1.255.145 1.75.434.495.29.863.653 1.106 1.092v-1.4h1.288V45h-1.288v-1.428c-.252.448-.63.821-1.134 1.12-.495.29-1.073.434-1.736.434-.681 0-1.297-.168-1.848-.504-.55-.336-.985-.807-1.302-1.414-.317-.607-.476-1.297-.476-2.072zm6.496.014c0-.579-.117-1.083-.35-1.512-.233-.43-.551-.756-.952-.98-.392-.233-.826-.35-1.302-.35-.476 0-.91.112-1.302.336-.392.224-.705.55-.938.98-.233.43-.35.933-.35 1.512 0 .588.117 1.101.35 1.54.233.43.546.76.938.994.392.224.826.336 1.302.336.476 0 .91-.112 1.302-.336.401-.233.719-.565.952-.994.233-.439.35-.947.35-1.526zm2.965 0c0-.793.159-1.484.476-2.072.317-.597.756-1.06 1.316-1.386.569-.327 1.218-.49 1.946-.49.943 0 1.717.229 2.324.686.616.457 1.022 1.092 1.218 1.904h-1.372c-.131-.467-.387-.835-.77-1.106-.373-.27-.84-.406-1.4-.406-.728 0-1.316.252-1.764.756-.448.495-.672 1.2-.672 2.114 0 .924.224 1.638.672 2.142.448.504 1.036.756 1.764.756.56 0 1.027-.13 1.4-.392.373-.261.63-.635.77-1.12h1.372c-.205.784-.616 1.414-1.232 1.89-.616.467-1.386.7-2.31.7-.728 0-1.377-.163-1.946-.49-.56-.327-.999-.789-1.316-1.386-.317-.597-.476-1.297-.476-2.1zM118.87 45l-3.01-3.388V45h-1.274V34.64h1.274v6.09l2.954-3.402h1.778l-3.612 3.822 3.626 3.85h-1.736z"/>
    <path fill="#999891" d="M20.878 58.709l-2.016 3.843V65h-.63v-2.448l-2.034-3.843h.711l1.638 3.267 1.629-3.267h.702zm3.073 6.363c-.462 0-.879-.102-1.25-.306-.367-.21-.658-.504-.874-.882-.21-.384-.315-.831-.315-1.341s.108-.954.324-1.332c.216-.384.51-.678.882-.882.372-.21.79-.315 1.251-.315.462 0 .88.105 1.251.315.378.204.672.498.882.882.216.378.324.822.324 1.332 0 .504-.108.948-.324 1.332-.216.384-.513.681-.89.891-.379.204-.799.306-1.26.306zm0-.549c.324 0 .624-.072.9-.216.276-.15.498-.372.666-.666.174-.3.261-.666.261-1.098 0-.432-.084-.795-.252-1.089-.168-.3-.39-.522-.666-.666-.276-.15-.576-.225-.9-.225-.324 0-.624.075-.9.225-.276.144-.498.366-.666.666-.162.294-.243.657-.243 1.089 0 .432.081.798.243 1.098.168.294.387.516.657.666.276.144.576.216.9.216zm7.88-4.437V65h-.63v-.864c-.143.306-.366.54-.666.702-.3.162-.636.243-1.008.243-.588 0-1.068-.18-1.44-.54-.372-.366-.558-.894-.558-1.584v-2.871h.622v2.799c0 .534.131.942.396 1.224.27.282.636.423 1.098.423.474 0 .852-.15 1.134-.45.282-.3.422-.741.422-1.323v-2.673h.63zm6.249-.09c.372 0 .705.078.998.234.3.156.534.396.703.72.174.318.26.708.26 1.17V65h-.62v-2.808c0-.534-.136-.942-.405-1.224-.264-.282-.627-.423-1.09-.423-.474 0-.852.15-1.134.45-.282.3-.422.741-.422 1.323V65h-.63v-6.66h.63v2.583c.156-.294.384-.522.684-.684.305-.162.648-.243 1.026-.243zm3.067 2.538c0-.504.099-.945.297-1.323.204-.384.483-.678.837-.882.36-.21.765-.315 1.215-.315.468 0 .87.108 1.206.324.342.216.588.492.738.828v-1.08h.63V65h-.63v-1.089c-.156.336-.405.615-.747.837-.336.216-.738.324-1.206.324-.444 0-.846-.105-1.206-.315-.354-.21-.633-.507-.837-.891-.198-.384-.297-.828-.297-1.332zm4.293.009c0-.396-.081-.744-.243-1.044-.162-.3-.384-.531-.666-.693-.276-.162-.582-.243-.918-.243-.348 0-.66.078-.936.234-.276.156-.495.384-.657.684-.156.294-.234.645-.234 1.053 0 .402.078.756.234 1.062.162.3.38.531.657.693.276.156.588.234.936.234.336 0 .642-.081.918-.243.282-.162.504-.393.666-.693.162-.3.243-.648.243-1.044zm3.814 1.845l1.656-4.302h.666L49.606 65h-.712l-1.97-4.914h.674l1.656 4.302zm7.622-2.097c0 .216-.006.381-.018.495h-4.077c.018.372.108.69.27.954.162.264.375.465.639.603.264.132.552.198.864.198.408 0 .75-.099 1.026-.297.282-.198.468-.465.558-.801h.666c-.12.48-.378.873-.774 1.179-.39.3-.882.45-1.476.45-.462 0-.876-.102-1.242-.306-.366-.21-.654-.504-.864-.882-.204-.384-.306-.831-.306-1.341s.102-.957.306-1.341c.204-.384.489-.678.855-.882.366-.204.783-.306 1.251-.306.468 0 .876.102 1.224.306.354.204.624.48.81.828.192.342.288.723.288 1.143zm-.639-.018c.006-.366-.069-.678-.225-.936-.15-.258-.357-.453-.621-.585-.264-.132-.552-.198-.864-.198-.468 0-.867.15-1.197.45-.33.3-.513.723-.549 1.269h3.456zm8.707.018c0 .216-.006.381-.018.495H60.85c.018.372.108.69.27.954.162.264.375.465.64.603.263.132.551.198.863.198.408 0 .75-.099 1.026-.297.282-.198.468-.465.558-.801h.666c-.12.48-.378.873-.774 1.179-.39.3-.882.45-1.476.45-.462 0-.876-.102-1.242-.306-.366-.21-.654-.504-.864-.882-.204-.384-.306-.831-.306-1.341s.102-.957.306-1.341c.204-.384.49-.678.855-.882.366-.204.783-.306 1.251-.306.468 0 .876.102 1.224.306.354.204.624.48.81.828.192.342.288.723.288 1.143zm-.639-.018c.006-.366-.069-.678-.225-.936-.15-.258-.357-.453-.62-.585-.265-.132-.553-.198-.865-.198-.468 0-.867.15-1.197.45-.33.3-.513.723-.549 1.269h3.456zm1.504.261c0-.504.099-.945.297-1.323.204-.384.483-.678.837-.882.36-.21.765-.315 1.215-.315.468 0 .87.108 1.206.324.342.216.588.492.738.828v-1.08h.63V65h-.63v-1.089c-.156.336-.405.615-.747.837-.336.216-.738.324-1.206.324-.444 0-.846-.105-1.206-.315-.354-.21-.633-.507-.837-.891-.198-.384-.297-.828-.297-1.332zm4.293.009c0-.396-.081-.744-.243-1.044-.162-.3-.384-.531-.666-.693-.276-.162-.582-.243-.918-.243-.348 0-.66.078-.936.234-.276.156-.495.384-.657.684-.156.294-.234.645-.234 1.053 0 .402.078.756.234 1.062.162.3.381.531.657.693.276.156.588.234.936.234.336 0 .642-.081.918-.243.282-.162.504-.393.666-.693.162-.3.243-.648.243-1.044zm2.698-1.584c.138-.306.348-.543.63-.711.288-.168.64-.252 1.053-.252v.657h-.17c-.457 0-.823.123-1.099.369s-.414.657-.414 1.233V65h-.63v-4.914h.63v.873zm4.935-.963c.588 0 1.068.183 1.44.549.372.36.558.885.558 1.575V65h-.621v-2.808c0-.534-.135-.942-.405-1.224-.264-.282-.627-.423-1.09-.423-.473 0-.851.15-1.133.45-.282.3-.423.741-.423 1.323V65h-.63v-4.914h.63v.837c.156-.3.38-.528.675-.684.294-.162.627-.243.999-.243zm7.837 2.295c0 .216-.006.381-.018.495h-4.077c.018.372.108.69.27.954.162.264.375.465.64.603.263.132.551.198.863.198.408 0 .75-.099 1.026-.297.282-.198.468-.465.558-.801h.666c-.12.48-.378.873-.774 1.179-.39.3-.882.45-1.476.45-.462 0-.876-.102-1.242-.306-.366-.21-.654-.504-.864-.882-.204-.384-.306-.831-.306-1.341s.102-.957.306-1.341c.204-.384.49-.678.855-.882.366-.204.783-.306 1.251-.306.468 0 .876.102 1.224.306.354.204.624.48.81.828.192.342.288.723.288 1.143zm-.639-.018c.006-.366-.069-.678-.225-.936-.15-.258-.357-.453-.62-.585-.265-.132-.553-.198-.865-.198-.468 0-.867.15-1.197.45-.33.3-.513.723-.549 1.269h3.456zm1.504.261c0-.504.102-.945.306-1.323.204-.384.483-.678.837-.882.36-.21.765-.315 1.215-.315.432 0 .822.105 1.17.315.348.21.603.483.765.819V58.34h.63V65h-.63v-1.098c-.15.342-.396.624-.738.846-.342.216-.744.324-1.206.324-.45 0-.855-.105-1.215-.315-.354-.21-.633-.507-.837-.891-.198-.384-.297-.828-.297-1.332zm4.293.009c0-.396-.081-.744-.243-1.044-.162-.3-.384-.531-.666-.693-.276-.162-.582-.243-.918-.243-.348 0-.66.078-.936.234-.276.156-.495.384-.657.684-.156.294-.234.645-.234 1.053 0 .402.078.756.234 1.062.162.3.38.531.657.693.276.156.588.234.936.234.336 0 .642-.081.918-.243.282-.162.504-.393.666-.693.162-.3.243-.648.243-1.044zm4.25 0c0-.51.102-.954.306-1.332.204-.384.486-.678.846-.882.36-.21.77-.315 1.233-.315.606 0 1.104.15 1.494.45.396.3.65.708.765 1.224h-.675c-.084-.354-.267-.63-.55-.828-.275-.204-.62-.306-1.034-.306-.33 0-.627.075-.891.225-.264.15-.474.375-.63.675-.15.294-.225.657-.225 1.089 0 .432.075.798.225 1.098.156.3.366.525.63.675.264.15.56.225.89.225.415 0 .76-.099 1.036-.297.282-.204.465-.486.549-.846h.675c-.114.504-.37.909-.765 1.215-.396.306-.894.459-1.494.459-.462 0-.873-.102-1.233-.306-.36-.21-.642-.504-.846-.882-.204-.384-.306-.831-.306-1.341zm7.958 2.529c-.462 0-.879-.102-1.251-.306-.366-.21-.657-.504-.873-.882-.21-.384-.315-.831-.315-1.341s.108-.954.324-1.332c.216-.384.51-.678.882-.882.372-.21.789-.315 1.251-.315.462 0 .879.105 1.251.315.378.204.672.498.882.882.216.378.324.822.324 1.332 0 .504-.108.948-.324 1.332-.216.384-.513.681-.891.891-.378.204-.798.306-1.26.306zm0-.549c.324 0 .624-.072.9-.216.276-.15.498-.372.666-.666.174-.3.261-.666.261-1.098 0-.432-.084-.795-.252-1.089-.168-.3-.39-.522-.666-.666-.276-.15-.576-.225-.9-.225-.324 0-.624.075-.9.225-.276.144-.498.366-.666.666-.162.294-.243.657-.243 1.089 0 .432.081.798.243 1.098.168.294.387.516.657.666.276.144.576.216.9.216zm3.939-5.364c-.126 0-.234-.045-.324-.135-.09-.09-.135-.201-.135-.333s.045-.24.135-.324c.09-.09.198-.135.324-.135s.234.045.324.135c.09.084.135.192.135.324s-.045.243-.135.333c-.09.09-.198.135-.324.135zm.315.927V65h-.63v-4.914h.63zm3.73-.09c.588 0 1.068.183 1.44.549.372.36.558.885.558 1.575V65h-.621v-2.808c0-.534-.135-.942-.405-1.224-.264-.282-.627-.423-1.089-.423-.474 0-.852.15-1.134.45-.282.3-.423.741-.423 1.323V65h-.63v-4.914h.63v.837c.156-.3.381-.528.675-.684.294-.162.627-.243.999-.243zm5.084 5.076c-.564 0-1.026-.129-1.386-.387-.354-.264-.552-.621-.594-1.071h.648c.03.276.159.501.387.675.234.168.546.252.936.252.342 0 .609-.081.801-.243.198-.162.297-.363.297-.603 0-.168-.054-.306-.162-.414-.108-.108-.246-.192-.414-.252-.162-.066-.384-.135-.666-.207-.366-.096-.663-.192-.891-.288-.228-.096-.423-.237-.585-.423-.156-.192-.234-.447-.234-.765 0-.24.072-.462.216-.666.144-.204.348-.366.612-.486s.564-.18.9-.18c.528 0 .954.135 1.278.405.324.264.498.63.522 1.098h-.63c-.018-.288-.132-.519-.342-.693-.204-.18-.486-.27-.846-.27-.318 0-.576.075-.774.225-.198.15-.297.336-.297.558 0 .192.057.351.171.477.12.12.267.216.441.288.174.066.408.141.702.225.354.096.636.189.846.279.21.09.39.222.54.396.15.174.228.405.234.693 0 .264-.072.501-.216.711-.144.204-.345.366-.603.486s-.555.18-.891.18z"/>
    <path fill="#FFDE46" d="M18.328 91.208c1.536-1.28 2.76-2.344 3.672-3.192.912-.864 1.672-1.76 2.28-2.688.608-.928.912-1.84.912-2.736 0-.816-.192-1.456-.576-1.92-.384-.464-.976-.696-1.776-.696s-1.416.272-1.848.816c-.432.528-.656 1.256-.672 2.184h-3.264c.064-1.92.632-3.376 1.704-4.368 1.088-.992 2.464-1.488 4.128-1.488 1.824 0 3.224.488 4.2 1.464.976.96 1.464 2.232 1.464 3.816 0 1.248-.336 2.44-1.008 3.576-.672 1.136-1.44 2.128-2.304 2.976-.864.832-1.992 1.84-3.384 3.024h7.08v2.784H17.08v-2.496l1.248-1.056zm12.773-9.096c.08-1.6.64-2.832 1.68-3.696 1.056-.88 2.44-1.32 4.152-1.32 1.168 0 2.168.208 3 .624.832.4 1.456.952 1.872 1.656.432.688.648 1.472.648 2.352 0 1.008-.264 1.864-.792 2.568-.512.688-1.128 1.152-1.848 1.392v.096c.928.288 1.648.8 2.16 1.536.528.736.792 1.68.792 2.832 0 .96-.224 1.816-.672 2.568-.432.752-1.08 1.344-1.944 1.776-.848.416-1.872.624-3.072.624-1.808 0-3.28-.456-4.416-1.368-1.136-.912-1.736-2.256-1.8-4.032h3.264c.032.784.296 1.416.792 1.896.512.464 1.208.696 2.088.696.816 0 1.44-.224 1.872-.672.448-.464.672-1.056.672-1.776 0-.96-.304-1.648-.912-2.064-.608-.416-1.552-.624-2.832-.624h-.696v-2.76h.696c2.272 0 3.408-.76 3.408-2.28 0-.688-.208-1.224-.624-1.608-.4-.384-.984-.576-1.752-.576-.752 0-1.336.208-1.752.624-.4.4-.632.912-.696 1.536h-3.288zm14.32 3.912c0-2.768.495-4.936 1.487-6.504 1.008-1.568 2.672-2.352 4.992-2.352s3.976.784 4.968 2.352c1.008 1.568 1.512 3.736 1.512 6.504 0 2.784-.504 4.968-1.512 6.552-.992 1.584-2.648 2.376-4.968 2.376s-3.984-.792-4.992-2.376c-.992-1.584-1.488-3.768-1.488-6.552zm9.647 0c0-1.184-.08-2.176-.24-2.976-.144-.816-.448-1.48-.912-1.992-.448-.512-1.12-.768-2.016-.768-.896 0-1.576.256-2.04.768-.448.512-.752 1.176-.912 1.992-.144.8-.216 1.792-.216 2.976 0 1.216.072 2.24.216 3.072.144.816.448 1.48.912 1.992.464.496 1.144.744 2.04.744.896 0 1.576-.248 2.04-.744.464-.512.768-1.176.912-1.992.144-.832.216-1.856.216-3.072zm5.868 0c0-2.768.496-4.936 1.488-6.504 1.008-1.568 2.672-2.352 4.992-2.352s3.976.784 4.968 2.352c1.008 1.568 1.512 3.736 1.512 6.504 0 2.784-.504 4.968-1.512 6.552-.992 1.584-2.648 2.376-4.968 2.376s-3.984-.792-4.992-2.376c-.992-1.584-1.488-3.768-1.488-6.552zm9.648 0c0-1.184-.08-2.176-.24-2.976-.144-.816-.448-1.48-.912-1.992-.448-.512-1.12-.768-2.016-.768-.896 0-1.576.256-2.04.768-.448.512-.752 1.176-.912 1.992-.144.8-.216 1.792-.216 2.976 0 1.216.072 2.24.216 3.072.144.816.448 1.48.912 1.992.464.496 1.144.744 2.04.744.896 0 1.576-.248 2.04-.744.464-.512.768-1.176.912-1.992.144-.832.216-1.856.216-3.072z"/>
    <defs>
        <linearGradient id="paint0_linear" x1="160" x2="160" y1="0" y2="136" gradientUnits="userSpaceOnUse">
            <stop offset=".146" stop-color="#3E3F49"/>
            <stop offset="1" stop-color="#545562" stop-opacity=".88"/>
        </linearGradient>
    </defs>
</svg>
